<svg xmlns="http://www.w3.org/2000/svg" viewBox="0 0 680 300" role="img" aria-labelledby="title desc">
  <title id="title">Moment animal companions</title>
  <desc id="desc">A friendly lion, fox, bear and wolf sitting together among leaves.</desc>
  <defs><filter id="soft" x="-20%" y="-20%" width="140%" height="140%"><feDropShadow dx="0" dy="10" stdDeviation="10" flood-color="#3b2d22" flood-opacity=".16"/></filter></defs>
  <g filter="url(#soft)" stroke="#3d342d" stroke-width="5" stroke-linecap="round" stroke-linejoin="round">
    <ellipse cx="340" cy="264" rx="260" ry="20" fill="#fff7e8" stroke="none" opacity=".72"/>
    <path d="M52 252c20-41 48-55 83-44-8 19-24 35-49 47M625 253c-18-42-45-58-79-47 7 20 22 37 46 49" fill="#759461"/>
    <g transform="translate(38 58)"><circle cx="80" cy="92" r="69" fill="#c77b38"/><circle cx="80" cy="92" r="54" fill="#e7a24e"/><circle cx="47" cy="52" r="19" fill="#c77b38"/><circle cx="113" cy="52" r="19" fill="#c77b38"/><ellipse cx="80" cy="112" rx="31" ry="25" fill="#f4d29c" stroke="none"/><circle cx="61" cy="88" r="5" fill="#3d342d" stroke="none"/><circle cx="99" cy="88" r="5" fill="#3d342d" stroke="none"/><path d="M74 105h12l-6 8Z" fill="#3d342d"/><path d="M80 114c-4 8-10 10-16 10m16-10c4 8 10 10 16 10" fill="none"/><path d="M31 210c2-47 20-78 49-78s47 31 50 78Z" fill="#d68a3e"/></g>
    <g transform="translate(178 52)"><path d="M37 77 22 19l48 30M128 79l21-57-50 29" fill="#d97a4b"/><path d="M42 43 31 27l28 19M124 46l13-18-30 17" fill="#f5c7a9" stroke-width="3"/><ellipse cx="83" cy="95" rx="63" ry="61" fill="#e98553"/><path d="M48 99c7 36 25 53 36 53 16 0 35-19 39-55-20 12-51 12-75 2Z" fill="#fff1df" stroke="none"/><circle cx="62" cy="88" r="5" fill="#3d342d" stroke="none"/><circle cx="105" cy="88" r="5" fill="#3d342d" stroke="none"/><path d="M78 105h11l-6 8Z" fill="#3d342d"/><path d="M83 114c-4 8-10 10-16 10m16-10c4 8 10 10 16 10" fill="none"/><path d="M37 164c4-30 23-48 46-48s42 18 47 48v51H37Z" fill="#d87347"/></g>
    <g transform="translate(334 68)"><circle cx="34" cy="45" r="24" fill="#9f795d"/><circle cx="126" cy="45" r="24" fill="#9f795d"/><circle cx="80" cy="92" r="68" fill="#ad8668"/><ellipse cx="80" cy="112" rx="34" ry="28" fill="#ead2b8" stroke="none"/><circle cx="58" cy="84" r="5" fill="#3d342d" stroke="none"/><circle cx="102" cy="84" r="5" fill="#3d342d" stroke="none"/><ellipse cx="80" cy="106" rx="9" ry="7" fill="#3d342d" stroke="none"/><path d="M80 113c-2 7-8 11-15 11m15-11c2 7 8 11 15 11" fill="none"/><path d="M31 210c2-47 20-78 49-78s47 31 50 78Z" fill="#9b7459"/></g>
    <g transform="translate(493 50)"><path d="M34 72 45 18l34 37M132 72 120 18 88 55" fill="#7d8790"/><path d="M45 48 49 29l19 27M119 48l-4-19-18 27" fill="#b7bec3" stroke-width="3"/><ellipse cx="83" cy="99" rx="60" ry="62" fill="#8f989f"/><path d="M48 105c8 34 24 48 35 48 15 0 31-15 36-48-20 10-50 10-71 0Z" fill="#d7dadd" stroke="none"/><circle cx="62" cy="91" r="5" fill="#3d342d" stroke="none"/><circle cx="104" cy="91" r="5" fill="#3d342d" stroke="none"/><path d="M76 108h14l-7 9Z" fill="#3d342d"/><path d="M83 117c-4 8-10 10-17 10m17-10c4 8 10 10 17 10" fill="none"/><path d="M35 210c3-47 21-76 48-76s45 29 48 76Z" fill="#747f87"/></g>
  </g>
</svg>
